<?xml version="1.0" encoding="UTF-8" standalone="no"?>
<!DOCTYPE svg PUBLIC "-//W3C//DTD SVG 1.1//EN" "http://www.w3.org/Graphics/SVG/1.1/DTD/svg11.dtd">
<svg width="100%" height="100%" viewBox="0 0 705 326" version="1.1" xmlns="http://www.w3.org/2000/svg" xmlns:xlink="http://www.w3.org/1999/xlink" xml:space="preserve" xmlns:serif="http://www.serif.com/" style="fill-rule:evenodd;clip-rule:evenodd;stroke-linejoin:round;stroke-miterlimit:2;">
    <g transform="matrix(1,0,0,1,-4053.45,436.943)">
        <g transform="matrix(1.62193,0,0,1.62193,-898.583,-1509.92)">
            <path d="M3053.16,862.189L3053.16,661.543L3122.68,662.213L3169.56,790.877L3214.46,662.357L3285.4,662.357L3285.4,702.645L3237.7,702.645L3237.7,720.371L3184.41,862.375L3150.54,862.109L3098.33,720.24L3099.22,862.531L3053.16,862.189Z" style="fill:white;"/>
        </g>
        <g transform="matrix(1.62193,0,0,1.73964,-898.583,-1601.06)">
            <path d="M3345.48,719.98L3345.48,805.84L3237.68,805.84L3237.68,720.278L3345.48,719.98Z" style="fill:white;"/>
        </g>
        <g transform="matrix(1.62193,0,0,1.62193,-898.583,-1509.92)">
            <path d="M3237.48,820.376L3284.89,820.376L3284.89,862.436L3237.36,862.436L3237.48,820.376Z" style="fill:white;"/>
        </g>
        <g transform="matrix(1.62193,0,0,1.62193,-898.583,-1509.92)">
            <path d="M3297.21,661.991L3297.28,702.577L3375.09,702.8C3375.09,702.8 3435.89,699.772 3435.99,761.872C3435.99,761.872 3440.24,824.361 3363.69,820.799L3297.43,820.812L3297.2,862.137C3297.2,862.137 3365.81,862.445 3388.64,861.543C3388.64,861.543 3482.26,858.515 3487.21,764.63C3487.21,764.63 3491.58,699.268 3434.39,674.345C3422.01,668.949 3404.51,663.369 3389.08,663.044C3333.21,661.868 3297.21,661.991 3297.21,661.991Z" style="fill:white;"/>
        </g>
    </g>
</svg>
